<svg width="316" height="316" viewBox="0 0 316 316" fill="none" xmlns="http://www.w3.org/2000/svg">
<rect width="316" height="316" rx="65" fill="black"/>
<path fill-rule="evenodd" clip-rule="evenodd" d="M205.93 81.7868C209.836 77.8816 216.167 77.8816 220.073 81.7868L234.215 95.9289C238.12 99.8342 238.12 106.166 234.215 110.071L186.285 158.001L234.093 205.809C237.998 209.714 237.998 216.045 234.093 219.951L219.951 234.093C216.045 237.998 209.714 237.998 205.809 234.093L158.001 186.285L110.193 234.093C106.288 237.998 99.9561 237.998 96.0509 234.093L81.9088 219.951C78.0035 216.045 78.0035 209.714 81.9088 205.809L129.716 158.001L81.7868 110.071C77.8815 106.166 77.8815 99.8343 81.7868 95.929L95.9289 81.7869C99.8342 77.8816 106.166 77.8816 110.071 81.7869L158.001 129.717L205.93 81.7868Z" fill="white"/>
</svg>
