<svg width="316" height="316" viewBox="0 0 316 316" fill="none" xmlns="http://www.w3.org/2000/svg">
<rect width="316" height="316" rx="65" fill="black"/>
<path fill-rule="evenodd" clip-rule="evenodd" d="M187.394 77.518C195.204 69.7075 207.867 69.7075 215.678 77.518L237.598 99.4383C245.409 107.249 245.409 119.912 237.598 127.723L207.762 157.559L237.601 187.398C245.411 195.208 245.411 207.871 237.601 215.682L215.68 237.602C207.87 245.413 195.206 245.413 187.396 237.602L157.557 207.764L127.719 237.602C119.908 245.413 107.245 245.413 99.4344 237.602L77.5141 215.682C69.7036 207.871 69.7036 195.208 77.5141 187.398L107.353 157.559L77.5164 127.723C69.7059 119.912 69.7059 107.249 77.5164 99.4383L99.4367 77.518C107.247 69.7075 119.91 69.7075 127.721 77.518L157.557 107.354L187.394 77.518Z" fill="white"/>
</svg>
