<svg fill="none" height="316" viewBox="0 0 316 316" width="316" xmlns="http://www.w3.org/2000/svg"><rect fill="#3f1291" height="316" rx="65" width="316"/><path clip-rule="evenodd" d="m187.394 77.518c7.81-7.8105 20.473-7.8105 28.284 0l21.92 21.9203c7.811 7.8107 7.811 20.4737 0 28.2847l-29.836 29.836 29.838 29.839c7.811 7.81 7.811 20.473.001 28.284l-21.921 21.92c-7.81 7.811-20.474 7.811-28.284 0l-29.839-29.838-29.838 29.838c-7.811 7.811-20.474 7.811-28.2846 0l-21.9203-21.92c-7.8105-7.811-7.8105-20.474 0-28.284l29.8389-29.839-29.8366-29.836c-7.8105-7.811-7.8105-20.474-.0001-28.2847l21.9204-21.9203c7.8103-7.8105 20.4733-7.8105 28.2843 0l29.836 29.836z" fill="#c5c5ff" fill-rule="evenodd"/></svg>