<svg width="978" height="316" viewBox="0 0 978 316" fill="none" xmlns="http://www.w3.org/2000/svg">
<rect width="978" height="316" rx="65" fill="black"/>
<path d="M720.922 65H754.422C756.589 65.3333 757.672 66.3333 757.672 68V211.25H827.672V177.75C828.005 175.75 829.005 174.75 830.672 174.75H864.172V68C864.505 66 865.589 65 867.422 65H900.922C902.922 65.3333 903.922 66.3333 903.922 68V248C903.922 250 902.922 251 900.922 251H867.422C865.255 251 864.172 250 864.172 248V214.5H830.672V248C830.672 250 829.672 251 827.672 251H757.672C755.505 251 754.422 250 754.422 248V214.5H720.922C718.922 214.5 717.922 213.417 717.922 211.25V68C718.255 66 719.255 65 720.922 65Z" fill="white"/>
<path d="M544.113 64H651.613C653.613 64.3333 654.613 65.3333 654.613 67V101C654.613 103 653.613 104 651.613 104H544.113V137.75H651.613C653.613 138.083 654.613 139.083 654.613 140.75V174.75H688.613C690.613 175.083 691.613 176.083 691.613 177.75V211.5C691.613 213.5 690.613 214.5 688.613 214.5H654.613V248.5C654.613 250.5 653.613 251.5 651.613 251.5H507.113C505.113 251.5 504.113 250.5 504.113 248.5V214.5C504.447 212.5 505.447 211.5 507.113 211.5H651.613V177.75H544.113C542.113 177.75 541.113 176.75 541.113 174.75V140.75H507.113C505.113 140.75 504.113 139.75 504.113 137.75V104C504.447 102 505.447 101 507.113 101H541.113V67C541.28 65 542.28 64 544.113 64Z" fill="white"/>
<path d="M292.555 64.75H326.055C328.221 65.0833 329.305 66.0833 329.305 67.75V101.25H362.805V67.75C363.138 65.75 364.138 64.75 365.805 64.75H435.805C437.971 65.0833 439.055 66.0833 439.055 67.75V101.25H472.555C474.555 101.583 475.555 102.667 475.555 104.5V247.75C475.555 249.75 474.555 250.75 472.555 250.75H439.055C436.888 250.75 435.805 249.75 435.805 247.75V104.5H365.805V138C365.805 140 364.805 141 362.805 141H329.305V247.75C329.305 249.75 328.221 250.75 326.055 250.75H292.555C290.555 250.75 289.555 249.75 289.555 247.75V67.75C289.888 65.75 290.888 64.75 292.555 64.75Z" fill="white"/>
<path d="M78 65H111.5C113.667 65.3333 114.75 66.3333 114.75 68V211.25H184.75V177.75C185.083 175.75 186.083 174.75 187.75 174.75H221.25V68C221.583 66 222.667 65 224.5 65H258C260 65.3333 261 66.3333 261 68V248C261 250 260 251 258 251H224.5C222.333 251 221.25 250 221.25 248V214.5H187.75V248C187.75 250 186.75 251 184.75 251H114.75C112.583 251 111.5 250 111.5 248V214.5H78C76 214.5 75 213.417 75 211.25V68C75.3333 66 76.3333 65 78 65Z" fill="white"/>
</svg>
