<svg width="73" height="81" viewBox="0 0 73 81" fill="none" xmlns="http://www.w3.org/2000/svg">
<g clip-path="url(#clip0_899_99)">
<path d="M9.29938 32.8C10.0994 34.5 12.0994 37.9 12.0994 37.9L34.9994 0L12.6994 15.6C11.3994 16.5 10.2994 17.7 9.49938 19.1C7.39938 23.4 7.39938 28.4 9.29938 32.8Z" fill="url(#paint0_linear_899_99)"/>
<path d="M0.298219 45.2002C0.798219 52.5002 4.49822 59.3002 10.2982 63.7002L34.9982 80.9002C34.9982 80.9002 19.4982 58.6002 6.49822 36.4002C5.19822 34.1002 4.29822 31.5002 3.89822 28.8002C3.69822 27.6002 3.69822 26.4002 3.89822 25.2002C3.59822 25.8002 2.89822 27.1002 2.89822 27.1002C1.59822 29.8002 0.698219 32.7002 0.198219 35.7002C-0.101781 38.9002 -0.101781 42.1002 0.298219 45.2002Z" fill="#A0A8D4"/>
<path d="M63.2977 48.1996C62.4977 46.4996 60.4977 43.0996 60.4977 43.0996L37.5977 80.8996L59.9977 65.3996C61.2977 64.4996 62.3977 63.2996 63.1977 61.8996C65.1977 57.5996 65.2977 52.5996 63.2977 48.1996Z" fill="url(#paint1_linear_899_99)"/>
<path d="M72.3992 35.7C71.8992 28.4 68.1992 21.6 62.3992 17.2L37.6992 0C37.6992 0 53.1992 22.3 66.1992 44.5C67.4992 46.8 68.3992 49.4 68.7992 52.1C68.9992 53.3 68.9992 54.5 68.7992 55.7C69.0992 55.1 69.7992 53.8 69.7992 53.8C71.0992 51.1 71.9992 48.2 72.4992 45.3C72.6992 42 72.6992 38.9 72.3992 35.7Z" fill="#A0A8D4"/>
<path d="M9.49822 19.1C10.2982 17.7 11.2982 16.5 12.6982 15.6L34.9982 0L12.0982 37.8C12.0982 37.8 10.0982 34.4 9.29822 32.7C7.39822 28.4 7.39822 23.4 9.49822 19.1ZM0.298219 45.2C0.798219 52.5 4.49822 59.3 10.2982 63.7L34.9982 80.9C34.9982 80.9 19.4982 58.6 6.49822 36.4C5.19822 34.1 4.29822 31.5 3.89822 28.8C3.69822 27.6 3.69822 26.4 3.89822 25.2C3.59822 25.8 2.89822 27.1 2.89822 27.1C1.59822 29.8 0.698219 32.7 0.198219 35.7C-0.101781 38.9 -0.101781 42.1 0.298219 45.2ZM63.2982 48.2C62.4982 46.5 60.4982 43.1 60.4982 43.1L37.5982 80.9L59.9982 65.4C61.2982 64.5 62.3982 63.3 63.1982 61.9C65.1982 57.6 65.2982 52.6 63.2982 48.2ZM72.2982 35.8C71.7982 28.5 68.0982 21.7 62.2982 17.3L37.6982 0C37.6982 0 53.1982 22.3 66.1982 44.5C67.4982 46.8 68.3982 49.4 68.7982 52.1C68.9982 53.3 68.9982 54.5 68.7982 55.7C69.0982 55.1 69.7982 53.8 69.7982 53.8C71.0982 51.1 71.9982 48.2 72.4982 45.3C72.6982 42 72.6982 38.9 72.2982 35.8Z" fill="url(#paint2_linear_899_99)"/>
</g>
<defs>
<linearGradient id="paint0_linear_899_99" x1="36.041" y1="0.9481" x2="6.65937" y2="32.7999" gradientUnits="userSpaceOnUse">
<stop offset="0.58" stop-color="#A0A8D4"/>
<stop offset="0.73" stop-color="#8791C7"/>
<stop offset="0.91" stop-color="#6470B4"/>
</linearGradient>
<linearGradient id="paint1_linear_899_99" x1="36.6563" y1="80.0181" x2="66.0269" y2="48.189" gradientUnits="userSpaceOnUse">
<stop offset="0.58" stop-color="#A0A8D4"/>
<stop offset="0.73" stop-color="#8791C7"/>
<stop offset="0.91" stop-color="#6470B4"/>
</linearGradient>
<linearGradient id="paint2_linear_899_99" x1="36.3208" y1="-0.3999" x2="36.3208" y2="81.2" gradientUnits="userSpaceOnUse">
<stop stop-color="#513EFF"/>
<stop offset="0.18" stop-color="#5157FF"/>
<stop offset="0.57" stop-color="#5298FF"/>
<stop offset="1" stop-color="#52E5FF"/>
</linearGradient>
<clipPath id="clip0_899_99">
<rect width="72.7" height="80.9" fill="white"/>
</clipPath>
</defs>
</svg>
