<svg width="40" height="40" viewBox="0 0 40 40" fill="none" xmlns="http://www.w3.org/2000/svg">
<path fill-rule="evenodd" clip-rule="evenodd" d="M5.5 8C5.5 6.61929 6.61929 5.5 8 5.5H13V0.5H8C3.85786 0.5 0.5 3.85786 0.5 8V13H5.5V8ZM34.5 32C34.5 33.3807 33.3807 34.5 32 34.5H27V39.5H32C36.1421 39.5 39.5 36.1421 39.5 32V27H34.5V32ZM34.5 8C34.5 6.61929 33.3807 5.5 32 5.5L27 5.5V0.5H32C36.1421 0.5 39.5 3.85786 39.5 8V13H34.5V8ZM8 34.5C6.61929 34.5 5.5 33.3807 5.5 32L5.5 27H0.5V32C0.5 36.1421 3.85786 39.5 8 39.5H13V34.5H8Z" fill="black"/>
</svg>
