<svg width="316" height="316" viewBox="0 0 316 316" fill="none" xmlns="http://www.w3.org/2000/svg">
<rect width="316" height="316" rx="65" fill="black"/>
<path fill-rule="evenodd" clip-rule="evenodd" d="M142 72C130.954 72 122 80.9543 122 92V123C122 134.046 130.954 143 142 143H173C184.046 143 193 134.046 193 123V92C193 80.9543 184.046 72 173 72H142ZM235.253 172C246.298 172 255.253 180.954 255.253 192V223C255.253 234.045 246.298 243 235.253 243L79.8594 243C68.8137 243 59.8594 234.045 59.8594 223L59.8594 192C59.8594 180.954 68.8137 172 79.8594 172L235.253 172Z" fill="white"/>
</svg>
